<mxfile host="app.diagrams.net" modified="2023-07-31T14:42:42.726Z" agent="Mozilla/5.0 (Windows NT 10.0; Win64; x64) AppleWebKit/537.36 (KHTML, like Gecko) Chrome/115.0.0.0 Safari/537.36" etag="BcAx2OtiaoVkt9D0Il5c" version="21.6.6" type="device">
  <diagram name="Page-1" id="A4xYejJWaingxn0CctIQ">
    <mxGraphModel dx="1376" dy="768" grid="1" gridSize="10" guides="1" tooltips="1" connect="1" arrows="1" fold="1" page="1" pageScale="1" pageWidth="850" pageHeight="1100" math="0" shadow="0">
      <root>
        <mxCell id="0" />
        <mxCell id="1" parent="0" />
        <mxCell id="1WMqykA1ipKuw0_S4R9x-4" style="edgeStyle=orthogonalEdgeStyle;rounded=0;orthogonalLoop=1;jettySize=auto;html=1;" edge="1" parent="1" source="1WMqykA1ipKuw0_S4R9x-1" target="1WMqykA1ipKuw0_S4R9x-2">
          <mxGeometry relative="1" as="geometry" />
        </mxCell>
        <mxCell id="1WMqykA1ipKuw0_S4R9x-1" value="" style="ellipse;whiteSpace=wrap;html=1;" vertex="1" parent="1">
          <mxGeometry x="140" y="220" width="120" height="80" as="geometry" />
        </mxCell>
        <mxCell id="1WMqykA1ipKuw0_S4R9x-5" style="edgeStyle=orthogonalEdgeStyle;rounded=0;orthogonalLoop=1;jettySize=auto;html=1;" edge="1" parent="1" source="1WMqykA1ipKuw0_S4R9x-2" target="1WMqykA1ipKuw0_S4R9x-6">
          <mxGeometry relative="1" as="geometry">
            <mxPoint x="200" y="470" as="targetPoint" />
          </mxGeometry>
        </mxCell>
        <mxCell id="1WMqykA1ipKuw0_S4R9x-2" value="call&amp;nbsp;l_cc_runAC" style="rounded=1;whiteSpace=wrap;html=1;" vertex="1" parent="1">
          <mxGeometry x="140" y="350" width="120" height="60" as="geometry" />
        </mxCell>
        <mxCell id="1WMqykA1ipKuw0_S4R9x-3" value="Function: l_cc_runAC&#xa;&#xa;&#xa;&#xa;Description:&#xa;    This function run the Ac module. here is all the logic needed for the AC module to run. The value&#xa;    of last_fan_state is meant to detect if the fan gauge was moved by the user. This is because we want&#xa;    to stop auto module when this happens. This is a feature of the climate module i studied, implemented here.&#xa;&#xa;&#xa;&#xa;Parameters In:&#xa;    None&#xa;&#xa;&#xa;&#xa;Parameters Out:&#xa;    last_fan_state: *uint8&#xa;&#xa;&#xa;&#xa;Return Value:&#xa;    None" style="text;whiteSpace=wrap;" vertex="1" parent="1">
          <mxGeometry x="290" width="560" height="370" as="geometry" />
        </mxCell>
        <mxCell id="1WMqykA1ipKuw0_S4R9x-7" style="edgeStyle=orthogonalEdgeStyle;rounded=0;orthogonalLoop=1;jettySize=auto;html=1;" edge="1" parent="1" source="1WMqykA1ipKuw0_S4R9x-6" target="1WMqykA1ipKuw0_S4R9x-8">
          <mxGeometry relative="1" as="geometry">
            <mxPoint x="200" y="570" as="targetPoint" />
          </mxGeometry>
        </mxCell>
        <mxCell id="1WMqykA1ipKuw0_S4R9x-6" value="call&amp;nbsp;g_cc_ac_set_AC_ON_OFF given ac_on button" style="rounded=1;whiteSpace=wrap;html=1;" vertex="1" parent="1">
          <mxGeometry x="110" y="450" width="180" height="60" as="geometry" />
        </mxCell>
        <mxCell id="1WMqykA1ipKuw0_S4R9x-9" value="yes" style="edgeStyle=orthogonalEdgeStyle;rounded=0;orthogonalLoop=1;jettySize=auto;html=1;" edge="1" parent="1" source="1WMqykA1ipKuw0_S4R9x-8" target="1WMqykA1ipKuw0_S4R9x-22">
          <mxGeometry relative="1" as="geometry">
            <mxPoint x="400" y="625" as="targetPoint" />
          </mxGeometry>
        </mxCell>
        <mxCell id="1WMqykA1ipKuw0_S4R9x-10" value="no" style="edgeStyle=orthogonalEdgeStyle;rounded=0;orthogonalLoop=1;jettySize=auto;html=1;" edge="1" parent="1" source="1WMqykA1ipKuw0_S4R9x-8" target="1WMqykA1ipKuw0_S4R9x-11">
          <mxGeometry relative="1" as="geometry">
            <mxPoint x="200" y="820" as="targetPoint" />
          </mxGeometry>
        </mxCell>
        <mxCell id="1WMqykA1ipKuw0_S4R9x-8" value="if fan button is different than last_fan_state and ac button is off" style="rhombus;whiteSpace=wrap;html=1;" vertex="1" parent="1">
          <mxGeometry x="105" y="550" width="190" height="150" as="geometry" />
        </mxCell>
        <mxCell id="1WMqykA1ipKuw0_S4R9x-23" value="yes" style="edgeStyle=orthogonalEdgeStyle;rounded=0;orthogonalLoop=1;jettySize=auto;html=1;" edge="1" parent="1" source="1WMqykA1ipKuw0_S4R9x-11" target="1WMqykA1ipKuw0_S4R9x-24">
          <mxGeometry relative="1" as="geometry">
            <mxPoint x="415" y="1130" as="targetPoint" />
          </mxGeometry>
        </mxCell>
        <mxCell id="1WMqykA1ipKuw0_S4R9x-32" value="no" style="edgeStyle=orthogonalEdgeStyle;rounded=0;orthogonalLoop=1;jettySize=auto;html=1;" edge="1" parent="1" source="1WMqykA1ipKuw0_S4R9x-11" target="1WMqykA1ipKuw0_S4R9x-13">
          <mxGeometry relative="1" as="geometry" />
        </mxCell>
        <mxCell id="1WMqykA1ipKuw0_S4R9x-11" value="if fan not different than&lt;br&gt;&amp;nbsp;last_fan_state and ac button is on, and &lt;br&gt;climate auto button is on" style="rhombus;whiteSpace=wrap;html=1;" vertex="1" parent="1">
          <mxGeometry x="85" y="1040" width="230" height="160" as="geometry" />
        </mxCell>
        <mxCell id="1WMqykA1ipKuw0_S4R9x-14" style="edgeStyle=orthogonalEdgeStyle;rounded=0;orthogonalLoop=1;jettySize=auto;html=1;" edge="1" parent="1" source="1WMqykA1ipKuw0_S4R9x-13" target="1WMqykA1ipKuw0_S4R9x-15">
          <mxGeometry relative="1" as="geometry">
            <mxPoint x="200" y="1700" as="targetPoint" />
          </mxGeometry>
        </mxCell>
        <mxCell id="1WMqykA1ipKuw0_S4R9x-13" value="" style="rhombus;whiteSpace=wrap;html=1;" vertex="1" parent="1">
          <mxGeometry x="160" y="1520" width="80" height="80" as="geometry" />
        </mxCell>
        <mxCell id="1WMqykA1ipKuw0_S4R9x-16" style="edgeStyle=orthogonalEdgeStyle;rounded=0;orthogonalLoop=1;jettySize=auto;html=1;" edge="1" parent="1" source="1WMqykA1ipKuw0_S4R9x-15" target="1WMqykA1ipKuw0_S4R9x-17">
          <mxGeometry relative="1" as="geometry">
            <mxPoint x="200" y="1800" as="targetPoint" />
          </mxGeometry>
        </mxCell>
        <mxCell id="1WMqykA1ipKuw0_S4R9x-15" value="call&amp;nbsp;g_cc_ac_stopAC of auto_on button" style="rounded=1;whiteSpace=wrap;html=1;" vertex="1" parent="1">
          <mxGeometry x="140" y="1670" width="120" height="60" as="geometry" />
        </mxCell>
        <mxCell id="1WMqykA1ipKuw0_S4R9x-18" style="edgeStyle=orthogonalEdgeStyle;rounded=0;orthogonalLoop=1;jettySize=auto;html=1;" edge="1" parent="1" source="1WMqykA1ipKuw0_S4R9x-17" target="1WMqykA1ipKuw0_S4R9x-19">
          <mxGeometry relative="1" as="geometry">
            <mxPoint x="200" y="1890" as="targetPoint" />
          </mxGeometry>
        </mxCell>
        <mxCell id="1WMqykA1ipKuw0_S4R9x-17" value="call g_cc_ac_startAC of fan and auto_on buttons" style="rounded=1;whiteSpace=wrap;html=1;" vertex="1" parent="1">
          <mxGeometry x="140" y="1770" width="120" height="60" as="geometry" />
        </mxCell>
        <mxCell id="1WMqykA1ipKuw0_S4R9x-20" style="edgeStyle=orthogonalEdgeStyle;rounded=0;orthogonalLoop=1;jettySize=auto;html=1;" edge="1" parent="1" source="1WMqykA1ipKuw0_S4R9x-19" target="1WMqykA1ipKuw0_S4R9x-21">
          <mxGeometry relative="1" as="geometry">
            <mxPoint x="200" y="1990" as="targetPoint" />
          </mxGeometry>
        </mxCell>
        <mxCell id="1WMqykA1ipKuw0_S4R9x-19" value="last_fan_state recieves the fan button value&amp;nbsp;" style="rounded=1;whiteSpace=wrap;html=1;" vertex="1" parent="1">
          <mxGeometry x="140" y="1860" width="120" height="60" as="geometry" />
        </mxCell>
        <mxCell id="1WMqykA1ipKuw0_S4R9x-21" value="" style="ellipse;whiteSpace=wrap;html=1;" vertex="1" parent="1">
          <mxGeometry x="140" y="1950" width="120" height="80" as="geometry" />
        </mxCell>
        <mxCell id="1WMqykA1ipKuw0_S4R9x-25" style="edgeStyle=orthogonalEdgeStyle;rounded=0;orthogonalLoop=1;jettySize=auto;html=1;" edge="1" parent="1" source="1WMqykA1ipKuw0_S4R9x-22" target="1WMqykA1ipKuw0_S4R9x-26">
          <mxGeometry relative="1" as="geometry">
            <mxPoint x="527.5" y="710" as="targetPoint" />
          </mxGeometry>
        </mxCell>
        <mxCell id="1WMqykA1ipKuw0_S4R9x-22" value="call&amp;nbsp;g_cc_ac_set_AC_ON_OFF with AC_ON" style="rounded=1;whiteSpace=wrap;html=1;" vertex="1" parent="1">
          <mxGeometry x="425" y="595" width="205" height="60" as="geometry" />
        </mxCell>
        <mxCell id="1WMqykA1ipKuw0_S4R9x-38" style="edgeStyle=orthogonalEdgeStyle;rounded=0;orthogonalLoop=1;jettySize=auto;html=1;" edge="1" parent="1" source="1WMqykA1ipKuw0_S4R9x-24" target="1WMqykA1ipKuw0_S4R9x-39">
          <mxGeometry relative="1" as="geometry">
            <mxPoint x="520" y="1220" as="targetPoint" />
          </mxGeometry>
        </mxCell>
        <mxCell id="1WMqykA1ipKuw0_S4R9x-24" value="call&amp;nbsp;g_cc_ac_set_AC_ON_OFF&amp;nbsp;&lt;br&gt;with AC_ON" style="rounded=1;whiteSpace=wrap;html=1;" vertex="1" parent="1">
          <mxGeometry x="420" y="1090" width="200" height="60" as="geometry" />
        </mxCell>
        <mxCell id="1WMqykA1ipKuw0_S4R9x-27" style="edgeStyle=orthogonalEdgeStyle;rounded=0;orthogonalLoop=1;jettySize=auto;html=1;" edge="1" parent="1" source="1WMqykA1ipKuw0_S4R9x-26" target="1WMqykA1ipKuw0_S4R9x-28">
          <mxGeometry relative="1" as="geometry">
            <mxPoint x="527.5" y="780" as="targetPoint" />
          </mxGeometry>
        </mxCell>
        <mxCell id="1WMqykA1ipKuw0_S4R9x-26" value="set ac button to on" style="rounded=1;whiteSpace=wrap;html=1;" vertex="1" parent="1">
          <mxGeometry x="467.5" y="680" width="120" height="60" as="geometry" />
        </mxCell>
        <mxCell id="1WMqykA1ipKuw0_S4R9x-28" value="set auto button to on" style="rounded=1;whiteSpace=wrap;html=1;" vertex="1" parent="1">
          <mxGeometry x="467.5" y="760" width="120" height="60" as="geometry" />
        </mxCell>
        <mxCell id="1WMqykA1ipKuw0_S4R9x-31" value="" style="edgeStyle=orthogonalEdgeStyle;rounded=0;orthogonalLoop=1;jettySize=auto;html=1;" edge="1" parent="1" source="1WMqykA1ipKuw0_S4R9x-28" target="1WMqykA1ipKuw0_S4R9x-30">
          <mxGeometry relative="1" as="geometry">
            <mxPoint x="527.5" y="860" as="targetPoint" />
            <mxPoint x="528" y="820" as="sourcePoint" />
          </mxGeometry>
        </mxCell>
        <mxCell id="1WMqykA1ipKuw0_S4R9x-33" value="yes" style="edgeStyle=orthogonalEdgeStyle;rounded=0;orthogonalLoop=1;jettySize=auto;html=1;entryX=0.5;entryY=0;entryDx=0;entryDy=0;" edge="1" parent="1" source="1WMqykA1ipKuw0_S4R9x-30" target="1WMqykA1ipKuw0_S4R9x-37">
          <mxGeometry relative="1" as="geometry">
            <mxPoint x="730" y="990" as="targetPoint" />
          </mxGeometry>
        </mxCell>
        <mxCell id="1WMqykA1ipKuw0_S4R9x-34" value="no" style="edgeStyle=orthogonalEdgeStyle;rounded=0;orthogonalLoop=1;jettySize=auto;html=1;" edge="1" parent="1" source="1WMqykA1ipKuw0_S4R9x-30" target="1WMqykA1ipKuw0_S4R9x-35">
          <mxGeometry relative="1" as="geometry">
            <mxPoint x="527.5050000000001" y="990" as="targetPoint" />
          </mxGeometry>
        </mxCell>
        <mxCell id="1WMqykA1ipKuw0_S4R9x-30" value="if success writing &lt;br&gt;buttons state" style="rhombus;whiteSpace=wrap;html=1;" vertex="1" parent="1">
          <mxGeometry x="456.88" y="850" width="141.25" height="100" as="geometry" />
        </mxCell>
        <mxCell id="1WMqykA1ipKuw0_S4R9x-36" style="edgeStyle=orthogonalEdgeStyle;rounded=0;orthogonalLoop=1;jettySize=auto;html=1;exitX=1;exitY=0.5;exitDx=0;exitDy=0;entryX=0;entryY=0.5;entryDx=0;entryDy=0;" edge="1" parent="1" source="1WMqykA1ipKuw0_S4R9x-35" target="1WMqykA1ipKuw0_S4R9x-37">
          <mxGeometry relative="1" as="geometry">
            <mxPoint x="700" y="1020" as="targetPoint" />
          </mxGeometry>
        </mxCell>
        <mxCell id="1WMqykA1ipKuw0_S4R9x-35" value="print error to stderr" style="rounded=1;whiteSpace=wrap;html=1;" vertex="1" parent="1">
          <mxGeometry x="467.4950000000001" y="990" width="120" height="60" as="geometry" />
        </mxCell>
        <mxCell id="1WMqykA1ipKuw0_S4R9x-47" style="edgeStyle=orthogonalEdgeStyle;rounded=0;orthogonalLoop=1;jettySize=auto;html=1;" edge="1" parent="1" source="1WMqykA1ipKuw0_S4R9x-37" target="1WMqykA1ipKuw0_S4R9x-48">
          <mxGeometry relative="1" as="geometry">
            <mxPoint x="700" y="1300" as="targetPoint" />
          </mxGeometry>
        </mxCell>
        <mxCell id="1WMqykA1ipKuw0_S4R9x-37" value="" style="rhombus;whiteSpace=wrap;html=1;" vertex="1" parent="1">
          <mxGeometry x="690" y="1000" width="40" height="40" as="geometry" />
        </mxCell>
        <mxCell id="1WMqykA1ipKuw0_S4R9x-40" style="edgeStyle=orthogonalEdgeStyle;rounded=0;orthogonalLoop=1;jettySize=auto;html=1;" edge="1" parent="1" source="1WMqykA1ipKuw0_S4R9x-39" target="1WMqykA1ipKuw0_S4R9x-41">
          <mxGeometry relative="1" as="geometry">
            <mxPoint x="520" y="1290" as="targetPoint" />
          </mxGeometry>
        </mxCell>
        <mxCell id="1WMqykA1ipKuw0_S4R9x-39" value="auto_on is set to AUTO_OFF" style="rounded=1;whiteSpace=wrap;html=1;" vertex="1" parent="1">
          <mxGeometry x="460" y="1190" width="120" height="60" as="geometry" />
        </mxCell>
        <mxCell id="1WMqykA1ipKuw0_S4R9x-42" value="yes" style="edgeStyle=orthogonalEdgeStyle;rounded=0;orthogonalLoop=1;jettySize=auto;html=1;" edge="1" parent="1" source="1WMqykA1ipKuw0_S4R9x-41" target="1WMqykA1ipKuw0_S4R9x-48">
          <mxGeometry relative="1" as="geometry">
            <mxPoint x="720" y="1470" as="targetPoint" />
          </mxGeometry>
        </mxCell>
        <mxCell id="1WMqykA1ipKuw0_S4R9x-43" value="no" style="edgeStyle=orthogonalEdgeStyle;rounded=0;orthogonalLoop=1;jettySize=auto;html=1;entryX=0.5;entryY=0;entryDx=0;entryDy=0;" edge="1" parent="1" source="1WMqykA1ipKuw0_S4R9x-41" target="1WMqykA1ipKuw0_S4R9x-44">
          <mxGeometry relative="1" as="geometry">
            <mxPoint x="520" y="1440" as="targetPoint" />
          </mxGeometry>
        </mxCell>
        <mxCell id="1WMqykA1ipKuw0_S4R9x-41" value="if written successfully buttons" style="rhombus;whiteSpace=wrap;html=1;" vertex="1" parent="1">
          <mxGeometry x="455" y="1290" width="130" height="110" as="geometry" />
        </mxCell>
        <mxCell id="1WMqykA1ipKuw0_S4R9x-45" style="edgeStyle=orthogonalEdgeStyle;rounded=0;orthogonalLoop=1;jettySize=auto;html=1;entryX=0;entryY=0.5;entryDx=0;entryDy=0;" edge="1" parent="1" source="1WMqykA1ipKuw0_S4R9x-44" target="1WMqykA1ipKuw0_S4R9x-46">
          <mxGeometry relative="1" as="geometry">
            <mxPoint x="690" y="1480" as="targetPoint" />
          </mxGeometry>
        </mxCell>
        <mxCell id="1WMqykA1ipKuw0_S4R9x-44" value="print error to stderr" style="rounded=1;whiteSpace=wrap;html=1;" vertex="1" parent="1">
          <mxGeometry x="459.9950000000001" y="1450" width="120" height="60" as="geometry" />
        </mxCell>
        <mxCell id="1WMqykA1ipKuw0_S4R9x-50" style="edgeStyle=orthogonalEdgeStyle;rounded=0;orthogonalLoop=1;jettySize=auto;html=1;entryX=1;entryY=0.5;entryDx=0;entryDy=0;" edge="1" parent="1" source="1WMqykA1ipKuw0_S4R9x-46" target="1WMqykA1ipKuw0_S4R9x-13">
          <mxGeometry relative="1" as="geometry">
            <Array as="points">
              <mxPoint x="710" y="1560" />
            </Array>
          </mxGeometry>
        </mxCell>
        <mxCell id="1WMqykA1ipKuw0_S4R9x-46" value="" style="rhombus;whiteSpace=wrap;html=1;" vertex="1" parent="1">
          <mxGeometry x="690" y="1460" width="40" height="40" as="geometry" />
        </mxCell>
        <mxCell id="1WMqykA1ipKuw0_S4R9x-49" style="edgeStyle=orthogonalEdgeStyle;rounded=0;orthogonalLoop=1;jettySize=auto;html=1;entryX=0.5;entryY=0;entryDx=0;entryDy=0;" edge="1" parent="1" source="1WMqykA1ipKuw0_S4R9x-48" target="1WMqykA1ipKuw0_S4R9x-46">
          <mxGeometry relative="1" as="geometry" />
        </mxCell>
        <mxCell id="1WMqykA1ipKuw0_S4R9x-48" value="" style="rhombus;whiteSpace=wrap;html=1;" vertex="1" parent="1">
          <mxGeometry x="687.5" y="1325" width="45" height="40" as="geometry" />
        </mxCell>
      </root>
    </mxGraphModel>
  </diagram>
</mxfile>
